<mxfile host="www.draw.io" modified="2019-11-15T21:05:27.900Z" agent="Mozilla/5.0 (Windows NT 10.0; Win64; x64) AppleWebKit/537.36 (KHTML, like Gecko) Chrome/78.0.3904.97 Safari/537.36" etag="phiFFXBoIgncGHCXHVv9" version="12.2.6" type="github" pages="1">
  <diagram id="Q0rHDnTHYuzu7F4OOoof" name="Page-1">
    <mxGraphModel dx="670" dy="356" grid="1" gridSize="10" guides="1" tooltips="1" connect="1" arrows="1" fold="1" page="1" pageScale="1" pageWidth="827" pageHeight="1169" math="0" shadow="0">
      <root>
        <mxCell id="0"/>
        <mxCell id="1" parent="0"/>
        <mxCell id="PNT0XBAOtH4EJ4wIyLek-1" value="" style="curved=1;endArrow=classic;html=1;strokeWidth=6;" edge="1" parent="1">
          <mxGeometry width="50" height="50" relative="1" as="geometry">
            <mxPoint x="160" y="320" as="sourcePoint"/>
            <mxPoint x="310" y="440" as="targetPoint"/>
            <Array as="points">
              <mxPoint x="230" y="440"/>
              <mxPoint x="230" y="390"/>
              <mxPoint x="230" y="370"/>
            </Array>
          </mxGeometry>
        </mxCell>
        <mxCell id="PNT0XBAOtH4EJ4wIyLek-4" value="Text" style="text;html=1;resizable=0;points=[];align=center;verticalAlign=middle;labelBackgroundColor=#ffffff;" vertex="1" connectable="0" parent="PNT0XBAOtH4EJ4wIyLek-1">
          <mxGeometry x="0.2461" y="-2" relative="1" as="geometry">
            <mxPoint as="offset"/>
          </mxGeometry>
        </mxCell>
      </root>
    </mxGraphModel>
  </diagram>
</mxfile>
